<?xml version="1.0" encoding="utf-8" ?>
<svg baseProfile="full" height="300mm" version="1.1" viewBox="0,0,200,300" width="200mm" xmlns="http://www.w3.org/2000/svg" xmlns:ev="http://www.w3.org/2001/xml-events" xmlns:xlink="http://www.w3.org/1999/xlink"><defs /><rect fill="#222222" height="300" width="200" x="0" y="0" /><text fill="#FFFFFF" style="font-size:12px; font-family:Arial; font-weight:bold;" x="10" y="20">Running</text><text fill="#FFFFFF" style="font-size:4px; font-family:Arial" x="10" y="280">ATHLETE</text><text fill="#FFFFFF" style="font-size:9px; font-family:Arial" x="10" y="290">Kai</text><text fill="#FFFFFF" style="font-size:4px; font-family:Arial" x="65" y="280">SPECIAL TRACKS</text><rect fill="#FFFF00" height="2.6" width="2.6" x="65" y="283" /><text fill="#FFFFFF" style="font-size:3px; font-family:Arial" x="70" y="285.5">Over 10.0 km</text><rect fill="#FFFF00" height="2.6" width="2.6" x="65" y="287" /><text fill="#FFFFFF" style="font-size:3px; font-family:Arial" x="70" y="289.5">Over 20.0 km</text><text fill="#FFFFFF" style="font-size:4px; font-family:Arial" x="120" y="280">STATISTICS</text><text fill="#FFFFFF" style="font-size:3px; font-family:Arial" x="120" y="285">Number: 3</text><text fill="#FFFFFF" style="font-size:3px; font-family:Arial" x="120" y="290">Weekly: 1.0</text><text fill="#FFFFFF" style="font-size:3px; font-family:Arial" x="141" y="285">Total: 6.0 km</text><text fill="#FFFFFF" style="font-size:3px; font-family:Arial" x="141" y="290">Avg: 2.0 km</text><text fill="#FFFFFF" style="font-size:3px; font-family:Arial" x="167" y="285">Min: 1.4 km</text><text fill="#FFFFFF" style="font-size:3px; font-family:Arial" x="167" y="290">Max: 2.4 km</text><polyline fill="none" points="28.510304417228326,43.29345823597396 30.167902696877718,57.75026152306236 29.084088437259197,59.09159938758239 30.359164036810398,62.89204282220453 31.50673207640648,63.041079402551986 60.642209528246894,45.60358586424263 77.66446878365241,37.853450392140076 81.48969558277167,34.5 81.04341912292875,45.52906573622022 79.70458974293433,47.76466615218669 77.53696122369729,61.774267466389574 78.17449902370572,64.75499781320104 75.30557892471552,92.25164139445405 74.9230562443845,115.5" stroke="#4DD2FF" stroke-linecap="round" stroke-linejoin="round" stroke-width="0.5"><title>2022-09-20 2.4km</title><desc>1663683034000</desc></polyline><polyline fill="none" points="124.3144973423332,49.53099659649888 140.14137982577085,40.28119406173937 148.92762708687223,37.0165261477232 152.5934123680927,34.5 154.048089066986,35.18014317192137 150.90598739730194,47.21855841984507 148.8112529506907,63.13340601098025 146.89107970846817,86.12082483881386 146.4255831646733,105.50306998688029 149.3931236306671,105.29904939129483 159.40129931853153,101.0826092811767 165.68550265743397,115.5" stroke="#4DD2FF" stroke-linecap="round" stroke-linejoin="round" stroke-width="0.5"><title>2022-08-23 2.2km</title><desc>1661263280000</desc></polyline><polyline fill="none" points="28.324792496860027,200.3125195055036 50.78812513081357,188.67690914671402 64.06191259715706,184.5 82.1857377900742,223.88179553323425 86.90814294619486,239.99221366236452 32.7919325097464,265.5 28.197159925010055,250.58322179422248 23.09185705333948,245.66065042454284" stroke="#4DD2FF" stroke-linecap="round" stroke-linejoin="round" stroke-width="0.5"><title>2022-08-06 1.4km</title><desc>1659792329000</desc></polyline></svg>
